<svg width="120" height="120" viewBox="0 0 120 120" fill="none" xmlns="http://www.w3.org/2000/svg">
<rect x="7.93006" y="41.3999" width="90.7903" height="64.9529" rx="15" transform="rotate(-15.6358 7.93006 41.3999)" fill="#F8F7F1" stroke="#FB4F00" stroke-width="8"/>
<path d="M73.7251 32.9996C73.8631 33.7946 74.041 34.6942 74.2586 35.6984C74.4959 36.6971 74.7272 37.6744 74.9525 38.6301C75.1973 39.5804 75.4039 40.3562 75.5721 40.9575C75.9492 42.3802 76.3481 43.8431 76.7688 45.3462C77.209 46.8438 77.6613 48.3844 78.1257 49.968C78.5975 51.5031 79.0792 53.0354 79.5707 54.565C80.5732 57.6188 81.5323 60.2911 82.448 62.5818C83.3637 64.8726 84.2135 66.6261 84.9975 67.8423C85.7694 69.0156 86.4687 69.5145 87.0955 69.3391C87.4284 69.2459 87.6374 68.7475 87.7224 67.8438C87.827 66.9346 87.8263 65.8002 87.7204 64.4406C87.622 63.0325 87.4664 61.571 87.2536 60.056C87.0603 58.5355 86.8618 57.1091 86.6579 55.7769L91.7954 62.8138C92.1948 66.731 92.3838 69.8967 92.3625 72.3108C92.3487 74.6765 92.1373 76.4491 91.7283 77.6287C91.3072 78.7654 90.6951 79.4461 89.8921 79.6709C88.8344 79.9669 87.6094 79.4762 86.2169 78.1987C84.8441 76.9158 83.3439 74.6497 81.7164 71.4003C80.0768 68.1081 78.3146 63.6229 76.4298 57.9449C75.7789 55.9967 75.1176 53.9358 74.4459 51.762C73.7937 49.5827 73.1814 47.508 72.6089 45.538C72.056 43.5624 71.5992 41.9305 71.2386 40.6421C70.9862 39.7402 70.6661 38.672 70.2784 37.4376C69.8907 36.2031 69.5194 35.1029 69.1646 34.1371L73.7251 32.9996ZM88.8295 30.3699C89.7866 31.6766 90.8143 33.3109 91.9125 35.2727C93.0107 37.2346 94.1118 39.3577 95.2158 41.6421C96.3198 43.9265 97.3929 46.289 98.435 48.7296C99.4651 51.1273 100.415 53.5012 101.284 55.8514C102.16 58.1531 102.904 60.2836 103.516 62.2426L100.557 66.6134C99.7262 64.0211 98.7506 61.2145 97.6306 58.1937C96.5105 55.1728 95.2963 52.1551 93.988 49.1406C92.6797 46.1262 91.3313 43.3081 89.9428 40.6866C88.5739 38.0595 87.2055 35.8491 85.8376 34.0554L88.8295 30.3699Z" fill="#FB4F00" stroke="#FB4F00" stroke-width="2"/>
<path d="M66.8665 38.0451C66.9114 38.3567 66.9789 38.8241 67.0688 39.4473C67.1467 40.0275 67.2344 40.605 67.3319 41.1797C67.4294 41.7545 67.5006 42.1977 67.5456 42.5092C67.9943 44.7918 68.476 47.343 68.9907 50.1628C69.5129 52.9342 69.9454 55.8002 70.2882 58.7607C70.6506 61.7157 70.8007 64.5913 70.7384 67.3873C70.702 71.9359 70.159 76.0706 69.1094 79.7913C68.0673 83.4636 66.6236 86.5305 64.778 88.9921L59.4321 82.5692C60.5597 81.4664 61.6069 80.0387 62.5737 78.2862C63.5481 76.4852 64.3442 74.3868 64.962 71.991C65.5678 69.5523 65.8801 66.8947 65.8987 64.0182C65.9151 62.1149 65.8052 60.0617 65.5687 57.8587C65.3323 55.6556 65.0131 53.3831 64.6111 51.0412C64.1971 48.6563 63.7145 46.2906 63.1634 43.9441C62.9088 44.0154 62.4974 44.1305 61.9294 44.2895C61.3614 44.4485 60.6955 44.6348 59.9316 44.8486C59.1678 45.0624 58.3549 45.2899 57.4931 45.5311C56.6313 45.7723 55.7695 46.0135 54.9077 46.2547C54.0459 46.4959 53.2233 46.7261 52.4398 46.9454C51.676 47.1592 50.9905 47.3511 50.3833 47.521C49.7957 47.6855 49.355 47.8088 49.0612 47.891C49.1814 48.3205 49.3376 48.8788 49.53 49.5659C49.7103 50.2101 49.9206 50.9617 50.161 51.8206C50.3894 52.6366 50.6238 53.474 50.8641 54.333C51.0925 55.1489 51.3149 55.9434 51.5312 56.7165C51.7356 57.4466 51.9159 58.0908 52.0721 58.6491C52.2043 59.1215 52.4147 59.873 52.7032 60.9037C52.9992 61.886 53.3208 62.8843 53.6681 63.8986L49.3493 65.1073C49.1 64.0656 48.8709 63.134 48.6621 62.3126C48.4729 61.4856 48.2581 60.6427 48.0177 59.7838C47.8375 59.1396 47.579 58.2162 47.2425 57.0138C46.9059 55.8113 46.5453 54.5229 46.1607 53.1486C45.7641 51.7314 45.3914 50.4 45.0429 49.1546C44.6943 47.9091 44.4178 46.9214 44.2135 46.1913C43.9611 45.2894 43.6891 44.393 43.3975 43.5021C43.1135 42.5628 42.8317 41.6691 42.5521 40.8212C43.0342 40.7326 43.6007 40.6435 44.2515 40.554C44.8903 40.4215 45.5524 40.2593 46.2379 40.0675C46.3946 40.0236 46.7276 39.9304 47.2368 39.7879C47.7657 39.6399 48.4022 39.4617 49.1465 39.2534C49.8908 39.0451 50.7036 38.8176 51.585 38.5709C52.4664 38.3243 53.3478 38.0776 54.2292 37.8309C55.1301 37.5787 55.9822 37.3403 56.7852 37.1155C57.5882 36.8908 58.2933 36.6934 58.9005 36.5235C59.5077 36.3536 59.968 36.2247 60.2814 36.137C60.771 36 61.2389 35.8227 61.6849 35.6053C62.1505 35.3823 62.5612 35.1516 62.9168 34.9132L66.8665 38.0451Z" fill="#FB4F00" stroke="#FB4F00" stroke-width="2"/>
<path d="M16.8765 48.7018C17.6208 48.4935 18.5707 48.2276 19.7263 47.9042C20.8699 47.5378 22.0602 47.112 23.2973 46.6269C24.5223 46.0988 25.6254 45.5122 26.6065 44.8671C27.2906 44.4441 27.9432 43.9836 28.5642 43.4856C29.2048 42.9822 29.8061 42.4897 30.3684 42.0082C30.9381 41.4782 31.4333 40.946 31.854 40.4115C32.2942 39.8714 32.6524 39.3776 32.9283 38.9299L37.3207 45.3417C36.8836 45.7419 36.509 46.1015 36.197 46.4204C35.8849 46.7392 35.6196 46.9987 35.401 47.1988C34.89 47.7123 34.33 48.2396 33.7211 48.7805C33.1001 49.2784 32.4536 49.7604 31.7814 50.2264C31.1092 50.6924 30.4273 51.1611 29.7355 51.6326C28.7152 52.2886 27.6024 52.8779 26.3969 53.4006C25.1915 53.9232 24.0192 54.4134 22.8801 54.8711C21.7289 55.2859 20.7285 55.6354 19.8787 55.9195L16.8765 48.7018ZM30.5622 92.7332C31.805 90.5329 32.6323 88.0553 33.044 85.3004C33.4633 82.4971 33.4866 79.4109 33.1139 76.0419C32.7489 72.6245 32.0014 68.8973 30.8715 64.8604C30.8715 64.8604 30.7393 64.388 30.4749 63.4432C30.1984 62.4554 29.7898 60.9952 29.2489 59.0627C28.696 57.0871 27.9988 54.5962 27.1574 51.59L30.7357 49.5465C31.0482 50.6631 31.3848 51.8656 31.7454 53.154C32.094 54.3995 32.4425 55.6449 32.7911 56.8904C33.1397 58.1358 33.4582 59.2739 33.7467 60.3046C34.0231 61.2923 34.2515 62.1083 34.4318 62.7525C34.6001 63.3538 34.6842 63.6544 34.6842 63.6544C35.8862 67.949 36.7832 72.0974 37.3753 76.0996C37.987 80.0964 38.1914 83.8829 37.9885 87.4593C37.7735 90.9927 37.0647 94.2707 35.862 97.2934L30.5622 92.7332ZM18.9821 64.7147C19.4175 64.6855 19.8822 64.648 20.3763 64.6024C20.8704 64.5567 21.3427 64.4708 21.7932 64.3447C22.0674 64.268 22.5864 64.1227 23.3503 63.9089C24.1142 63.6951 25.0347 63.4375 26.112 63.136C27.2088 62.829 28.384 62.5001 29.6375 62.1493C30.8911 61.7985 32.1446 61.4476 33.3981 61.0968C34.6517 60.7459 35.8268 60.417 36.9237 60.1101C38.0205 59.8031 38.9607 59.54 39.7441 59.3207C40.5276 59.1014 41.0564 58.9534 41.3306 58.8767C41.5461 58.8164 41.8143 58.7181 42.1352 58.582C42.4562 58.4459 42.7771 58.3097 43.098 58.1736C43.4266 57.989 43.6925 57.8451 43.896 57.7419L46.2218 66.052C45.806 66.0757 45.3571 66.1319 44.875 66.2205C44.4125 66.3036 43.9756 66.4028 43.5643 66.5179C43.2901 66.5946 42.7612 66.7426 41.9778 66.9619C41.2139 67.1757 40.2738 67.4388 39.1573 67.7513C38.0605 68.0583 36.8755 68.3899 35.6024 68.7462C34.3489 69.0971 33.0856 69.4507 31.8124 69.807C30.5589 70.1578 29.3837 70.4867 28.2869 70.7937C27.1901 71.1007 26.2597 71.3611 25.4958 71.5748C24.732 71.7886 24.2325 71.9284 23.9975 71.9942C23.547 72.1203 23.0731 72.2761 22.5759 72.4615C22.0787 72.647 21.656 72.8348 21.3079 73.0248L18.9821 64.7147Z" fill="#FB4F00" stroke="#FB4F00" stroke-width="2"/>
</svg>
