<svg width="120" height="120" viewBox="0 0 120 120" fill="none" xmlns="http://www.w3.org/2000/svg">
<path d="M35.7586 19.1191C31.5907 19.1191 26.6869 18.2874 22.8288 20.4848C19.0947 22.6114 17.553 25.7967 15.6897 30.0443C10.345 42.2284 6.8698 54.6974 7.00374 68.6121C7.05893 74.3458 8.70091 80.2141 10.2163 85.6121C11.0623 88.6254 11.7958 92.1432 14.0635 94.1356C18.4723 98.0092 26.0063 97.3043 30.6025 94.3711C34.6253 91.8038 36.9412 86.1494 38.5349 81.3739C39.9074 77.261 41.5717 73.0148 42.5407 68.7534C44.0152 62.2695 44.3255 55.6931 44.3255 49.0221C44.3255 43.7626 44.4869 38.7136 43.4133 33.5761C42.2698 28.1041 41.296 23.9113 37.5433 20.2964C36.3084 19.1068 34.5444 17 32.9029 17" stroke="#FB4F00" stroke-width="8" stroke-linecap="round"/>
<path d="M61.2385 20.9309C59.3649 42.7725 56.9513 64.4739 54.8331 86.2701C54.3962 90.7667 54.4564 95.2436 54.4564 99.7618" stroke="#FB4F00" stroke-width="8" stroke-linecap="round"/>
<path d="M61.075 65.3255C67.6305 61.8662 74.9868 60.2397 82.1354 60.2397" stroke="#FB4F00" stroke-width="8" stroke-linecap="round"/>
<path d="M84.1846 20.9309C84.0248 41.9871 83.8149 63.131 83.193 84.1746C83.0521 88.9437 83.3841 93.8057 82.7568 98.5374C82.5133 100.374 82.0428 102.132 82.0428 104" stroke="#FB4F00" stroke-width="8" stroke-linecap="round"/>
<path d="M112 23.5515C111.899 35.596 111.39 48.3558 109.144 60.1414C108.85 61.688 108.183 63.0333 108.093 64.6386C107.998 66.3451 108.164 68.0666 108.054 69.7716C107.717 74.9701 105.218 79.85 105.218 85.0057" stroke="#FB4F00" stroke-width="8" stroke-linecap="round"/>
<path d="M105.16 99.5485C103.308 99.5485 102.503 100.522 101.967 102.751C101.475 104.796 104.172 101.796 104.446 100.82" stroke="#FB4F00" stroke-width="8" stroke-linecap="round"/>
</svg>
