<svg width="120" height="120" viewBox="0 0 120 120" fill="none" xmlns="http://www.w3.org/2000/svg">
<path d="M58.7757 7.78716C59.3735 6.94271 60.6265 6.94272 61.2243 7.78715L77.6781 31.0304C78.7566 32.554 80.3066 33.6801 82.0889 34.235L109.279 42.701C110.267 43.0085 110.654 44.2003 110.036 45.0297L93.0145 67.8608C91.8988 69.3573 91.3068 71.1795 91.3298 73.0459L91.6804 101.521C91.6932 102.556 90.6794 103.292 89.6995 102.961L62.726 93.8278C60.958 93.2292 59.042 93.2292 57.274 93.8278L30.3005 102.961C29.3206 103.293 28.3068 102.556 28.3196 101.521L28.6702 73.0459C28.6932 71.1795 28.1012 69.3573 26.9855 67.8608L9.96431 45.0297C9.34591 44.2002 9.73313 43.0085 10.721 42.701L37.9112 34.235C39.6934 33.6801 41.2434 32.554 42.3219 31.0304L58.7757 7.78716Z" fill="white" stroke="#FB4F00" stroke-width="7"/>
<path d="M85.1252 62.1692C86.0349 63.8541 86.7323 65.3172 87.2175 66.5587C87.7026 67.7559 87.9452 69.2634 87.9452 71.0812C87.9452 72.4557 87.6875 73.7637 87.172 75.0052C86.6565 76.2023 86.0349 77.1556 85.3071 77.865C84.5794 78.5745 83.9578 78.9292 83.4423 78.9292C82.8965 78.9292 82.3507 78.6853 81.8049 78.1976C81.2591 77.7099 80.7891 77.0891 80.3949 76.3354C79.0304 73.8081 77.5749 71.9015 76.0285 70.6157C74.5123 69.3299 73.0417 68.687 71.6165 68.687C69.9791 68.687 68.5691 69.4185 67.3865 70.8817C66.204 72.3006 65.6127 74.2071 65.6127 76.6014C65.6127 78.641 66.022 80.2593 66.8407 81.4565C67.6898 82.6536 68.933 83.2522 70.5704 83.2522C71.5104 83.2522 72.8749 82.8753 74.6639 82.1215C75.6949 81.7225 76.362 81.523 76.6652 81.523C77.7265 81.523 78.6968 82.0329 79.5762 83.0527C80.4859 84.0281 80.9407 85.1366 80.9407 86.378C80.9407 87.3535 80.6072 88.1738 79.9401 88.8388C79.273 89.5039 78.3178 89.9695 77.0746 90.2355C76.1346 90.4572 74.952 90.568 73.5268 90.568C70.8585 90.568 68.6601 89.9695 66.9317 88.7723C65.2336 87.6195 63.9904 86.1342 63.202 84.3163C62.444 82.4984 62.0649 80.614 62.0649 78.6631C62.0649 76.2245 62.5349 74.0963 63.4749 72.2784C64.4452 70.4162 65.6733 68.9973 67.1591 68.0219C68.6752 67.0464 70.2065 66.5587 71.753 66.5587C72.8143 66.5587 73.8604 66.7361 74.8914 67.0908C75.9526 67.4455 77.1201 67.911 78.3936 68.4874C79.9097 69.1969 80.8952 69.5516 81.3501 69.5516C81.8959 69.5516 82.1688 69.1969 82.1688 68.4874C82.1688 67.8224 81.9262 66.6696 81.441 65.029C80.8649 63.0781 80.0613 61.1494 79.0304 59.2429C78.0297 57.292 76.8623 55.5184 75.5281 53.9222C74.103 54.8977 72.6626 55.6514 71.2072 56.1835C69.782 56.7156 68.5843 56.9816 67.614 56.9816C65.9462 56.9816 64.2481 56.0948 62.5198 54.3213C60.8217 52.5034 59.4875 50.4638 58.5172 48.2025C58.2746 47.6705 58.1533 47.2714 58.1533 47.0054C58.1533 46.8724 58.214 46.8059 58.3353 46.8059C58.3959 46.8059 58.5172 46.8946 58.6991 47.0719C58.9114 47.2049 59.0933 47.3379 59.2449 47.471C60.2153 48.3134 61.3978 49.0228 62.7927 49.5992C64.1875 50.1313 65.3398 50.3973 66.2494 50.3973C67.432 50.3973 68.842 50.0204 70.4794 49.2667C69.8427 48.8676 69.1604 48.4908 68.4327 48.136C67.4927 47.6927 66.7498 46.9389 66.204 45.8748C65.6581 44.7663 65.3852 43.5913 65.3852 42.3499C65.3852 41.1084 65.6885 39.9556 66.2949 38.8915C66.9317 37.783 67.7352 37.2288 68.7056 37.2288C69.403 37.2288 70.0852 37.5613 70.7523 38.2264C71.753 39.2905 72.6778 40.0664 73.5268 40.5541C74.4062 41.0419 75.331 41.2857 76.3014 41.2857C77.0897 41.2857 77.8326 41.1306 78.5301 40.8202C79.2578 40.5541 79.9552 40.4211 80.6223 40.4211C81.4107 40.4211 82.0475 40.6872 82.5326 41.2192C83.0178 41.707 83.2604 42.3499 83.2604 43.148C83.2604 44.5224 82.4872 46.3847 80.9407 48.7346C80.0917 49.9761 79.1213 51.0624 78.0297 51.9935C79.4852 53.8114 80.8649 55.6736 82.1688 57.5802C83.4726 59.4424 84.4581 60.9721 85.1252 62.1692ZM72.1168 45.7418C72.7233 46.2295 73.3146 46.7615 73.8907 47.338C74.4365 46.8946 74.861 46.4512 75.1643 46.0078C75.2552 45.8748 75.4523 45.5866 75.7556 45.1432C76.0891 44.6998 76.2559 44.3229 76.2559 44.0126C76.2559 43.8352 76.1346 43.6357 75.892 43.414C73.3752 41.8621 71.9046 41.0862 71.4801 41.0862C71.2375 41.0862 71.0252 41.2414 70.8433 41.5518C70.6917 41.8621 70.6159 42.1947 70.6159 42.5494C70.6159 43.1701 70.7827 43.7909 71.1162 44.4116C71.4498 44.988 71.7833 45.4314 72.1168 45.7418Z" fill="#FB4F00" stroke="#FB4F00"/>
<path d="M57.3893 80.7247C58.2686 81.6558 58.9206 82.6312 59.3451 83.651C59.7696 84.6265 59.9819 85.5354 59.9819 86.3779C59.9819 87.2203 59.7696 87.9075 59.3451 88.4396C58.9509 88.9273 58.4506 89.1712 57.8441 89.1712C57.0557 89.1712 56.328 88.75 55.6609 87.9075C53.8112 85.5576 51.9615 83.6954 50.1119 82.3209C49.9603 85.1142 49.1112 87.2868 47.5648 88.8386C46.0487 90.4348 44.0625 91.2329 41.6064 91.2329C39.969 91.2329 38.4074 90.856 36.9216 90.1023C35.4661 89.3929 34.2835 88.3953 33.3738 87.1094C32.4945 85.7793 32.0548 84.2939 32.0548 82.6534C32.0548 79.6827 33.0251 77.4658 34.9658 76.0026C36.9367 74.4951 39.3474 73.7414 42.1977 73.7414C43.1983 73.7414 44.2748 73.8522 45.427 74.0739C45.427 73.2758 45.4119 72.6772 45.3816 72.2782C45.3816 69.0415 45.3361 65.9378 45.2451 62.9671C45.0025 54.1881 44.8812 47.8476 44.8812 43.9458C44.8812 42.3497 44.7448 41.1525 44.4719 40.3544C44.2293 39.5563 43.7896 38.8691 43.1529 38.2927C42.9406 38.1153 42.7435 37.938 42.5616 37.7606C42.41 37.5389 42.3341 37.3394 42.3341 37.162C42.3341 36.8517 42.5009 36.6078 42.8345 36.4305C43.168 36.2531 43.5774 36.1644 44.0625 36.1644C45.609 36.1644 47.0341 36.7408 48.338 37.8936C49.6419 39.0464 50.2938 40.6648 50.2938 42.7487C50.2938 43.5025 50.2332 44.1897 50.1119 44.8104C49.9906 45.4312 49.8086 46.1628 49.5661 47.0052C49.1416 48.424 48.8838 49.6655 48.7928 50.7296L48.6564 52.4588C49.3841 52.3702 50.0209 52.1928 50.5667 51.9268C51.1125 51.6164 51.8403 51.173 52.7499 50.5966C53.6899 50.0202 54.2661 49.6877 54.4783 49.599C54.6603 49.5103 54.9483 49.466 55.3425 49.466C56.2522 49.466 57.1315 49.7985 57.9806 50.4636C58.8296 51.1287 59.2541 51.9268 59.2541 52.8579C59.2541 54.2767 58.5719 55.3852 57.2073 56.1833C55.8732 56.937 54.4783 57.3139 53.0228 57.3139C52.3557 57.3139 51.6128 57.1809 50.7941 56.9149C49.9754 56.6488 49.2022 56.2941 48.4745 55.8508C48.4441 56.3828 48.429 57.1809 48.429 58.245C48.429 60.5506 48.5048 62.7232 48.6564 64.7628C48.8383 66.758 49.0809 69.1523 49.3841 71.9457C49.5054 72.6994 49.5812 73.3645 49.6116 73.9409C49.6722 74.5173 49.7328 75.005 49.7935 75.4041C51.3703 76.1135 52.8257 76.9559 54.1599 77.9314C55.4941 78.9068 56.5706 79.8379 57.3893 80.7247ZM45.427 79.5941C43.6987 78.8846 41.8945 78.5299 40.0145 78.5299C38.3164 78.5299 36.8609 78.8181 35.648 79.3945C34.4655 79.9266 33.8742 80.769 33.8742 81.9218C33.8742 83.1633 34.5564 84.0722 35.9209 84.6486C37.2854 85.1807 38.8622 85.4467 40.6512 85.4467C42.4403 85.4467 43.6835 84.9147 44.3809 83.8506C45.0783 82.7864 45.427 81.3676 45.427 79.5941Z" fill="#FB4F00" stroke="#FB4F00"/>
</svg>
